<svg xmlns="http://www.w3.org/2000/svg" xmlns:xlink="http://www.w3.org/1999/xlink" width="654" height="207" viewBox="0 0 654 207">
  <defs>
    <linearGradient id="linear-gradient" y1="0.5" x2="1" y2="0.5" gradientUnits="objectBoundingBox">
      <stop offset="0" stop-color="#009ae1"/>
      <stop offset="1" stop-color="#009ae1" stop-opacity="0.651"/>
    </linearGradient>
  </defs>
  <g id="Group_78" data-name="Group 78" transform="translate(-661 -437)">
    <g id="Group_68" data-name="Group 68" transform="translate(11)">
      <circle id="Ellipse_35" data-name="Ellipse 35" cx="28" cy="28" r="28" transform="translate(650 437)" fill="url(#linear-gradient)"/>
      <circle id="Ellipse_36" data-name="Ellipse 36" cx="28" cy="28" r="28" transform="translate(801 437)" fill="url(#linear-gradient)"/>
      <path id="Path_62" data-name="Path 62" d="M28.227,131.727A28.22,28.22,0,0,0,56.455,103.5a46.4,46.4,0,0,1,4.116-19.218,47.163,47.163,0,0,1,5.293-9.009,48.182,48.182,0,0,1,9.409-9.409,47.163,47.163,0,0,1,9.009-5.293A46.4,46.4,0,0,1,103.5,56.455,28.227,28.227,0,1,0,75.273,28.227a46.4,46.4,0,0,1-4.116,19.218,47.164,47.164,0,0,1-5.293,9.009,48.182,48.182,0,0,1-9.409,9.409,47.164,47.164,0,0,1-9.009,5.293,46.4,46.4,0,0,1-19.218,4.116,28.227,28.227,0,0,0,0,56.455Z" transform="translate(650 437)" fill="url(#linear-gradient)"/>
      <path id="Path_63" data-name="Path 63" d="M84.282,92.571A46.4,46.4,0,0,1,103.5,88.455,28.227,28.227,0,1,0,75.273,60.227a46.4,46.4,0,0,1-4.116,19.218,47.164,47.164,0,0,1-5.293,9.009,48.182,48.182,0,0,1-9.409,9.409,47.164,47.164,0,0,1-9.009,5.293,46.4,46.4,0,0,1-19.218,4.116A28.227,28.227,0,1,0,56.455,135.5a46.4,46.4,0,0,1,4.116-19.218,47.163,47.163,0,0,1,5.293-9.009,48.182,48.182,0,0,1,9.409-9.409A47.163,47.163,0,0,1,84.282,92.571Z" transform="translate(650 480.272)" fill="url(#linear-gradient)"/>
      <path id="Path_64" data-name="Path 64" d="M135.5,32a28.219,28.219,0,0,0-28.227,28.227,46.4,46.4,0,0,1-4.116,19.218,47.164,47.164,0,0,1-5.293,9.009,48.183,48.183,0,0,1-9.409,9.409,47.164,47.164,0,0,1-9.009,5.293,46.4,46.4,0,0,1-19.218,4.116A28.227,28.227,0,1,0,88.455,135.5a46.4,46.4,0,0,1,4.116-19.218,47.163,47.163,0,0,1,5.293-9.009,48.182,48.182,0,0,1,9.409-9.409,47.163,47.163,0,0,1,9.009-5.293A46.4,46.4,0,0,1,135.5,88.455,28.227,28.227,0,0,0,135.5,32Z" transform="translate(693.272 480.272)" fill="url(#linear-gradient)"/>
      <circle id="Ellipse_37" data-name="Ellipse 37" cx="28" cy="28" r="28" transform="translate(801 588)" fill="url(#linear-gradient)"/>
    </g>
    <g id="Group_77" data-name="Group 77">
      <text id="HURSTAI" transform="translate(898 556)" font-size="90" font-family="JosefinSans-Light, Josefin Sans" font-weight="300" letter-spacing="0.105em"><tspan x="0" y="0">HURST</tspan><tspan y="0" font-family="JosefinSans-SemiBold, Josefin Sans" font-weight="600">AI</tspan></text>
      <text id="SCREENING_LTD" data-name="SCREENING LTD" transform="translate(898 607)" font-size="30" font-family="JosefinSans-Light, Josefin Sans" font-weight="300" letter-spacing="0.53em"><tspan x="0" y="0">SCREENING LTD</tspan></text>
    </g>
  </g>
</svg>
