<svg xmlns="http://www.w3.org/2000/svg" xmlns:xlink="http://www.w3.org/1999/xlink" width="164" height="53.638" viewBox="0 0 164 53.638">
  <defs>
    <linearGradient id="linear-gradient" y1="0.5" x2="1" y2="0.5" gradientUnits="objectBoundingBox">
      <stop offset="0" stop-color="#009ae1"/>
      <stop offset="1" stop-color="#009ae1" stop-opacity="0.651"/>
    </linearGradient>
  </defs>
  <g id="Group_77" data-name="Group 77" transform="translate(0.002 0)">
    <g id="Group_68" data-name="Group 68" transform="translate(0 0)">
      <circle id="Ellipse_35" data-name="Ellipse 35" cx="7" cy="7" r="7" transform="translate(-0.002 0.355)" fill="url(#linear-gradient)"/>
      <circle id="Ellipse_36" data-name="Ellipse 36" cx="7" cy="7" r="7" transform="translate(38.998 0.355)" fill="url(#linear-gradient)"/>
      <path id="Path_62" data-name="Path 62" d="M7.315,34.135a7.313,7.313,0,0,0,7.315-7.314A12.023,12.023,0,0,1,15.7,21.84a12.221,12.221,0,0,1,1.372-2.334,12.485,12.485,0,0,1,2.438-2.438A12.221,12.221,0,0,1,21.84,15.7a12.023,12.023,0,0,1,4.98-1.067,7.314,7.314,0,1,0-7.314-7.314,12.023,12.023,0,0,1-1.067,4.98,12.221,12.221,0,0,1-1.372,2.334,12.485,12.485,0,0,1-2.438,2.438,12.221,12.221,0,0,1-2.334,1.372,12.023,12.023,0,0,1-4.98,1.067,7.314,7.314,0,1,0,0,14.629Z" transform="translate(0 -0.001)" fill="url(#linear-gradient)"/>
      <path id="Path_63" data-name="Path 63" d="M21.84,47.7a12.024,12.024,0,0,1,4.98-1.067,7.314,7.314,0,1,0-7.314-7.314,12.023,12.023,0,0,1-1.067,4.98,12.222,12.222,0,0,1-1.372,2.334,12.485,12.485,0,0,1-2.438,2.438A12.222,12.222,0,0,1,12.3,50.439a12.023,12.023,0,0,1-4.98,1.067A7.314,7.314,0,1,0,14.63,58.82,12.023,12.023,0,0,1,15.7,53.84a12.221,12.221,0,0,1,1.372-2.334,12.485,12.485,0,0,1,2.438-2.438A12.222,12.222,0,0,1,21.84,47.7Z" transform="translate(-0.001 -12.496)" fill="url(#linear-gradient)"/>
      <path id="Path_64" data-name="Path 64" d="M58.82,32a7.312,7.312,0,0,0-7.314,7.314,12.023,12.023,0,0,1-1.067,4.98,12.221,12.221,0,0,1-1.372,2.334,12.486,12.486,0,0,1-2.438,2.438A12.222,12.222,0,0,1,44.3,50.438a12.024,12.024,0,0,1-4.98,1.067,7.314,7.314,0,1,0,7.314,7.314A12.023,12.023,0,0,1,47.7,53.84a12.221,12.221,0,0,1,1.372-2.334,12.485,12.485,0,0,1,2.438-2.438A12.221,12.221,0,0,1,53.84,47.7a12.023,12.023,0,0,1,4.98-1.067A7.314,7.314,0,1,0,58.82,32Z" transform="translate(-12.496 -12.495)" fill="url(#linear-gradient)"/>
      <circle id="Ellipse_37" data-name="Ellipse 37" cx="7" cy="7" r="7" transform="translate(38.998 39.355)" fill="url(#linear-gradient)"/>
    </g>
    <text id="HURSTAI" transform="translate(61.998 29.355)" font-size="22" font-family="JosefinSans-Light, Josefin Sans" font-weight="300" letter-spacing="0.1em"><tspan x="0" y="0">HURST</tspan><tspan y="0" font-family="JosefinSans-SemiBold, Josefin Sans" font-weight="600">AI</tspan></text>
    <text id="SCREENING_LTD" data-name="SCREENING LTD" transform="translate(62.998 43.355)" font-size="7" font-family="JosefinSans-Light, Josefin Sans" font-weight="300" letter-spacing="0.49em"><tspan x="0" y="0">SCREENING LTD</tspan></text>
  </g>
</svg>
