<svg xmlns="http://www.w3.org/2000/svg" width="22.449" height="22.453" viewBox="0 0 22.449 22.453">
  <g id="instagram" transform="translate(-0.449 0)">
    <path id="Path_934" data-name="Path 934" d="M22.84,6.6a8.2,8.2,0,0,0-.522-2.724A5.752,5.752,0,0,0,19.033.592,8.226,8.226,0,0,0,16.309.07C15.107.013,14.726,0,11.677,0S8.247.013,7.05.066A8.207,8.207,0,0,0,4.326.588a5.478,5.478,0,0,0-1.991,1.3A5.528,5.528,0,0,0,1.041,3.873,8.226,8.226,0,0,0,.519,6.6C.462,7.8.449,8.18.449,11.229s.013,3.43.066,4.627a8.2,8.2,0,0,0,.522,2.724,5.751,5.751,0,0,0,3.285,3.285,8.227,8.227,0,0,0,2.724.522c1.2.053,1.579.066,4.627.066s3.43-.013,4.627-.066a8.2,8.2,0,0,0,2.724-.522A5.743,5.743,0,0,0,22.31,18.58a8.232,8.232,0,0,0,.522-2.724c.053-1.2.066-1.579.066-4.627s0-3.43-.057-4.627Zm-2.022,9.167a6.154,6.154,0,0,1-.386,2.083A3.725,3.725,0,0,1,18.3,19.984a6.176,6.176,0,0,1-2.083.386c-1.184.053-1.539.066-4.535.066s-3.355-.013-4.535-.066a6.151,6.151,0,0,1-2.083-.386,3.455,3.455,0,0,1-1.289-.838,3.491,3.491,0,0,1-.838-1.289,6.177,6.177,0,0,1-.386-2.083c-.053-1.184-.066-1.54-.066-4.535S2.5,7.882,2.55,6.7a6.151,6.151,0,0,1,.386-2.083,3.413,3.413,0,0,1,.842-1.29,3.485,3.485,0,0,1,1.289-.838,6.18,6.18,0,0,1,2.083-.386c1.184-.053,1.54-.066,4.535-.066s3.355.013,4.535.066a6.154,6.154,0,0,1,2.083.386,3.452,3.452,0,0,1,1.289.838,3.49,3.49,0,0,1,.838,1.29A6.179,6.179,0,0,1,20.818,6.7c.053,1.184.066,1.539.066,4.535s-.013,3.347-.066,4.531Zm0,0" transform="translate(0 0)"/>
    <path id="Path_935" data-name="Path 935" d="M130.717,124.5a5.768,5.768,0,1,0,5.768,5.768A5.769,5.769,0,0,0,130.717,124.5Zm0,9.509a3.741,3.741,0,1,1,3.741-3.741A3.742,3.742,0,0,1,130.717,134.009Zm0,0" transform="translate(-119.04 -119.039)"/>
    <path id="Path_936" data-name="Path 936" d="M365.143,89.948A1.347,1.347,0,1,1,363.8,88.6,1.347,1.347,0,0,1,365.143,89.948Zm0,0" transform="translate(-346.123 -84.715)"/>
  </g>
</svg>
