<svg xmlns="http://www.w3.org/2000/svg" width="136.62" height="196.269" viewBox="0 0 136.62 196.269">
  <g id="Group_76" data-name="Group 76" transform="translate(-792.997 -291.819)">
    <g id="Group_69" data-name="Group 69" transform="translate(792.997 334.742)">
      <circle id="Ellipse_32" data-name="Ellipse 32" cx="18.63" cy="18.63" r="18.63" transform="translate(0.001 0.001)" fill="#fff"/>
      <circle id="Ellipse_33" data-name="Ellipse 33" cx="18.63" cy="18.63" r="18.63" transform="translate(99.36 0.001)" fill="#fff"/>
      <path id="Path_46" data-name="Path 46" d="M18.629,116.937a18.625,18.625,0,0,0,18.63-18.63,30.625,30.625,0,0,1,2.717-12.684,31.127,31.127,0,0,1,3.493-5.946,31.8,31.8,0,0,1,6.211-6.211,31.128,31.128,0,0,1,5.946-3.493A30.625,30.625,0,0,1,68.31,67.256a18.63,18.63,0,1,0-18.63-18.63A30.625,30.625,0,0,1,46.964,61.31a31.127,31.127,0,0,1-3.493,5.946,31.8,31.8,0,0,1-6.211,6.211,31.128,31.128,0,0,1-5.946,3.493,30.625,30.625,0,0,1-12.684,2.717,18.63,18.63,0,1,0,0,37.26Z" transform="translate(0.002 -29.997)" fill="#fff"/>
      <path id="Path_47" data-name="Path 47" d="M55.623,101.977A30.625,30.625,0,0,1,68.307,99.26a18.63,18.63,0,1,0-18.63-18.63,30.625,30.625,0,0,1-2.717,12.684,31.128,31.128,0,0,1-3.493,5.946,31.8,31.8,0,0,1-6.211,6.211,31.128,31.128,0,0,1-5.946,3.493,30.625,30.625,0,0,1-12.684,2.717,18.63,18.63,0,1,0,18.63,18.63,30.625,30.625,0,0,1,2.717-12.684,31.128,31.128,0,0,1,3.493-5.946,31.8,31.8,0,0,1,6.211-6.211,31.128,31.128,0,0,1,5.946-3.493Z" transform="translate(0.003 -12.32)" fill="#fff"/>
      <path id="Path_48" data-name="Path 48" d="M100.307,62a18.625,18.625,0,0,0-18.63,18.63,30.625,30.625,0,0,1-2.717,12.684,31.128,31.128,0,0,1-3.493,5.946,31.8,31.8,0,0,1-6.211,6.211,31.127,31.127,0,0,1-5.946,3.493,30.625,30.625,0,0,1-12.684,2.717,18.63,18.63,0,1,0,18.63,18.63,30.625,30.625,0,0,1,2.717-12.684,31.127,31.127,0,0,1,3.493-5.946,31.8,31.8,0,0,1,6.211-6.211,31.127,31.127,0,0,1,5.946-3.493,30.625,30.625,0,0,1,12.684-2.717,18.63,18.63,0,0,0,0-37.26Z" transform="translate(17.682 -12.319)" fill="#fff"/>
      <circle id="Ellipse_34" data-name="Ellipse 34" cx="18.63" cy="18.63" r="18.63" transform="translate(99.36 99.36)" fill="#fff"/>
    </g>
    <g id="Group_55" data-name="Group 55" transform="translate(793 479.615)">
      <path id="Path_50" data-name="Path 50" d="M4.558,122.622l-.163.362a5.4,5.4,0,0,0-.817-.258,3.942,3.942,0,0,0-.938-.115,2.329,2.329,0,0,0-.758.115,1.8,1.8,0,0,0-.576.307,1.327,1.327,0,0,0-.363.45,1.246,1.246,0,0,0-.126.554.978.978,0,0,0,.175.591,1.568,1.568,0,0,0,.467.418,3.99,3.99,0,0,0,.658.313c.245.092.5.185.758.28a7.977,7.977,0,0,1,.758.323,3.042,3.042,0,0,1,.658.439,1.977,1.977,0,0,1,.466.613,1.951,1.951,0,0,1,.177.872,2.207,2.207,0,0,1-.181.911,1.91,1.91,0,0,1-.522.692,2.413,2.413,0,0,1-.812.438,3.4,3.4,0,0,1-1.054.154,3.8,3.8,0,0,1-.84-.087,4.149,4.149,0,0,1-.674-.214,4.347,4.347,0,0,1-.511-.253c-.143-.084-.255-.148-.335-.192l.22-.405a3.677,3.677,0,0,0,.422.245,4.8,4.8,0,0,0,.526.23,4.08,4.08,0,0,0,.587.171,2.958,2.958,0,0,0,.613.067,2.685,2.685,0,0,0,.725-.105,2.2,2.2,0,0,0,.68-.318,1.709,1.709,0,0,0,.5-.548,1.539,1.539,0,0,0,.2-.8,1.486,1.486,0,0,0-.175-.745,1.685,1.685,0,0,0-.467-.521,3.4,3.4,0,0,0-.658-.374q-.368-.159-.758-.3t-.758-.3a3.368,3.368,0,0,1-.658-.362,1.725,1.725,0,0,1-.467-.5,1.318,1.318,0,0,1-.175-.7,1.73,1.73,0,0,1,.16-.73,1.8,1.8,0,0,1,.45-.6,2.143,2.143,0,0,1,.7-.409,2.624,2.624,0,0,1,.9-.148,3.789,3.789,0,0,1,.531.039c.188.025.371.059.554.1a5,5,0,0,1,.511.138,2.912,2.912,0,0,1,.392.162Z" transform="translate(-0.005 -121.875)" fill="#fff"/>
      <path id="Path_51" data-name="Path 51" d="M12.956,129.531a4.017,4.017,0,0,1-.927.411,4.1,4.1,0,0,1-1.223.169,4.042,4.042,0,0,1-1.615-.312,3.713,3.713,0,0,1-1.234-.851,3.836,3.836,0,0,1-.79-1.251,4.053,4.053,0,0,1-.281-1.5,3.992,3.992,0,0,1,2.433-3.709,3.871,3.871,0,0,1,1.542-.307,4.28,4.28,0,0,1,1.13.148,3.269,3.269,0,0,1,.922.4c-.043.065-.078.12-.1.16s-.062.107-.123.2a2.983,2.983,0,0,0-.858-.363,3.859,3.859,0,0,0-.95-.12,3.493,3.493,0,0,0-2.509,1.048,3.723,3.723,0,0,0-.756,1.135,3.428,3.428,0,0,0-.281,1.383,3.6,3.6,0,0,0,.245,1.323,3.346,3.346,0,0,0,1.8,1.87,3.453,3.453,0,0,0,1.422.286,3.7,3.7,0,0,0,1.109-.158,3.56,3.56,0,0,0,.834-.368Z" transform="translate(3.803 -121.902)" fill="#fff"/>
      <path id="Path_52" data-name="Path 52" d="M14.8,129.994v-7.761h1.722a2.993,2.993,0,0,1,.829.123,2.339,2.339,0,0,1,.769.379,1.985,1.985,0,0,1,.565.669,2.073,2.073,0,0,1,.22.993,2.5,2.5,0,0,1-.318,1.223,1.948,1.948,0,0,1-1.022.862q.077.123.253.411c.118.192.248.413.4.654s.3.5.46.764l.456.751c.143.235.264.435.368.6s.172.278.21.329h-.549c-.029-.043-.089-.143-.18-.3l-.329-.55c-.127-.213-.267-.439-.418-.684s-.3-.486-.439-.72-.275-.452-.394-.654-.219-.36-.292-.478c-.1.016-.206.028-.312.041a3.331,3.331,0,0,1-.335.016h-1.2V130Zm.46-3.765h1.208a2.16,2.16,0,0,0,.966-.192,1.757,1.757,0,0,0,.61-.478,1.684,1.684,0,0,0,.312-.608,2.248,2.248,0,0,0,.089-.587,1.594,1.594,0,0,0-.138-.658,1.575,1.575,0,0,0-.394-.539,1.966,1.966,0,0,0-.621-.368,2.3,2.3,0,0,0-.812-.136H15.262Z" transform="translate(8.18 -121.871)" fill="#fff"/>
      <path id="Path_53" data-name="Path 53" d="M21.91,129.994v-7.761h4.752v.418H22.371v3.226h3.852v.418H22.371v3.269h4.445v.429Z" transform="translate(12.103 -121.871)" fill="#fff"/>
      <path id="Path_54" data-name="Path 54" d="M29.2,129.994v-7.761h4.752v.418H29.661v3.226h3.852v.418H29.661v3.269H34.1v.429Z" transform="translate(16.129 -121.871)" fill="#fff"/>
      <path id="Path_55" data-name="Path 55" d="M42.963,122.362v8.112q-.624-.78-1.4-1.7t-1.574-1.877q-.8-.955-1.543-1.871t-1.317-1.675l-.208-.286.033.351v6.707h-.461V122q.636.8,1.4,1.723t1.553,1.866q.789.943,1.542,1.855t1.353,1.678l.21.286-.034-.351v-6.7Z" transform="translate(20.157 -122)" fill="#fff"/>
      <path id="Path_56" data-name="Path 56" d="M45.2,122.233h.45v7.761H45.2Z" transform="translate(24.968 -121.871)" fill="#fff"/>
      <path id="Path_57" data-name="Path 57" d="M56.5,122.362v8.112q-.624-.78-1.4-1.7t-1.574-1.877q-.8-.955-1.543-1.871t-1.317-1.675l-.21-.286.034.351v6.707h-.461V122q.636.8,1.4,1.723t1.553,1.866q.792.943,1.543,1.855t1.355,1.678l.21.286-.034-.351v-6.7Z" transform="translate(27.637 -122)" fill="#fff"/>
      <path id="Path_58" data-name="Path 58" d="M64.421,126.589v2.975a4.209,4.209,0,0,1-.977.4,4.282,4.282,0,0,1-1.13.147,4.184,4.184,0,0,1-1.641-.307,3.809,3.809,0,0,1-1.251-.834,3.63,3.63,0,0,1-.8-1.241,4.172,4.172,0,0,1-.28-1.537,3.933,3.933,0,0,1,.318-1.58,4.1,4.1,0,0,1,.862-1.278,3.959,3.959,0,0,1,2.816-1.158,4.217,4.217,0,0,1,1.1.143,3.928,3.928,0,0,1,.987.405l-.231.374a3.552,3.552,0,0,0-.883-.363,3.782,3.782,0,0,0-.981-.13,3.351,3.351,0,0,0-1.36.28,3.563,3.563,0,0,0-1.119.769,3.68,3.68,0,0,0-.764,1.141,3.491,3.491,0,0,0-.28,1.389,3.733,3.733,0,0,0,.245,1.362,3.3,3.3,0,0,0,1.812,1.866,3.606,3.606,0,0,0,1.433.275,3.764,3.764,0,0,0,.877-.105,3.243,3.243,0,0,0,.823-.312v-2.284H62.206v-.394Z" transform="translate(32.231 -121.902)" fill="#fff"/>
      <path id="Path_59" data-name="Path 59" d="M71.265,129.994v-7.761h.461v7.322h4.3v.439Z" transform="translate(39.37 -121.871)" fill="#fff"/>
      <path id="Path_60" data-name="Path 60" d="M81.793,122.233v.439H79.642v7.322h-.45v-7.322H77.063v-.439Z" transform="translate(42.574 -121.871)" fill="#fff"/>
      <path id="Path_61" data-name="Path 61" d="M84.154,122.23h1.689a4.939,4.939,0,0,1,1.987.357,3.8,3.8,0,0,1,1.323.922,3.53,3.53,0,0,1,.742,1.262,4.334,4.334,0,0,1,.23,1.366,3.9,3.9,0,0,1-.313,1.6,3.652,3.652,0,0,1-2.09,1.987,4.253,4.253,0,0,1-1.5.268H84.154Zm2.062,7.322a3.82,3.82,0,0,0,1.344-.236,3.2,3.2,0,0,0,1.1-.68,3.255,3.255,0,0,0,.74-1.082,3.592,3.592,0,0,0,.275-1.438,3.685,3.685,0,0,0-.225-1.267,3.182,3.182,0,0,0-.68-1.1,3.293,3.293,0,0,0-1.147-.773,4.132,4.132,0,0,0-1.613-.292H84.6v6.87Z" transform="translate(46.491 -121.869)" fill="#fff"/>
    </g>
    <text id="HURSTAI" transform="translate(793.849 319.819)" fill="#fff" font-size="29" font-family="JosefinSans-Light, Josefin Sans" font-weight="300" letter-spacing="0.1em"><tspan x="0" y="0">HURST</tspan><tspan y="0" font-family="JosefinSans-SemiBold, Josefin Sans" font-weight="600">AI</tspan></text>
  </g>
</svg>
