<svg xmlns="http://www.w3.org/2000/svg" xmlns:xlink="http://www.w3.org/1999/xlink" width="548.066" height="548.074" viewBox="0 0 548.066 548.074">
  <defs>
    <linearGradient id="linear-gradient" y1="0.5" x2="1" y2="0.5" gradientUnits="objectBoundingBox">
      <stop offset="0" stop-color="#009ae1"/>
      <stop offset="1" stop-color="#009ae1" stop-opacity="0.651"/>
    </linearGradient>
  </defs>
  <g id="Group_69" data-name="Group 69" transform="translate(-792.997 -398.013)" opacity="0.1">
    <circle id="Ellipse_32" data-name="Ellipse 32" cx="74.735" cy="74.735" r="74.735" transform="translate(793.002 398.018)" fill="url(#linear-gradient)"/>
    <circle id="Ellipse_33" data-name="Ellipse 33" cx="74.735" cy="74.735" r="74.735" transform="translate(1191.592 398.018)" fill="url(#linear-gradient)"/>
    <path id="Path_46" data-name="Path 46" d="M74.735,378.768a74.716,74.716,0,0,0,74.735-74.735,122.856,122.856,0,0,1,10.9-50.883A124.87,124.87,0,0,1,174.382,229.3,127.568,127.568,0,0,1,199.3,204.378a124.871,124.871,0,0,1,23.854-14.013,122.856,122.856,0,0,1,50.883-10.9A74.735,74.735,0,1,0,199.3,104.732a122.856,122.856,0,0,1-10.9,50.883,124.872,124.872,0,0,1-14.013,23.854,127.568,127.568,0,0,1-24.918,24.918A124.872,124.872,0,0,1,125.618,218.4a122.856,122.856,0,0,1-50.883,10.9,74.736,74.736,0,0,0,0,149.472Z" transform="translate(793.002 368.016)" fill="url(#linear-gradient)"/>
    <path id="Path_47" data-name="Path 47" d="M223.15,222.37a122.855,122.855,0,0,1,50.883-10.9A74.735,74.735,0,1,0,199.3,136.736a122.856,122.856,0,0,1-10.9,50.883,124.873,124.873,0,0,1-14.013,23.854,127.569,127.569,0,0,1-24.918,24.918A124.872,124.872,0,0,1,125.615,250.4a122.857,122.857,0,0,1-50.883,10.9,74.735,74.735,0,1,0,74.735,74.735,122.857,122.857,0,0,1,10.9-50.883A124.874,124.874,0,0,1,174.378,261.3,127.57,127.57,0,0,1,199.3,236.382,124.874,124.874,0,0,1,223.15,222.37Z" transform="translate(793 535.315)" fill="url(#linear-gradient)"/>
    <path id="Path_48" data-name="Path 48" d="M306.033,62A74.716,74.716,0,0,0,231.3,136.736a122.856,122.856,0,0,1-10.9,50.883,124.872,124.872,0,0,1-14.013,23.854,127.569,127.569,0,0,1-24.918,24.918A124.871,124.871,0,0,1,157.615,250.4a122.856,122.856,0,0,1-50.883,10.9,74.735,74.735,0,1,0,74.735,74.735,122.856,122.856,0,0,1,10.9-50.883A124.871,124.871,0,0,1,206.378,261.3,127.571,127.571,0,0,1,231.3,236.382a124.873,124.873,0,0,1,23.854-14.013,122.856,122.856,0,0,1,50.883-10.9,74.736,74.736,0,1,0,0-149.472Z" transform="translate(960.294 535.313)" fill="url(#linear-gradient)"/>
    <circle id="Ellipse_34" data-name="Ellipse 34" cx="74.735" cy="74.735" r="74.735" transform="translate(1191.592 796.608)" fill="url(#linear-gradient)"/>
  </g>
</svg>
