<svg xmlns="http://www.w3.org/2000/svg" width="24.142" height="19.615" viewBox="0 0 24.142 19.615">
  <g id="twitter" transform="translate(0 -48)">
    <g id="Group_1163" data-name="Group 1163" transform="translate(0 48)">
      <path id="Path_937" data-name="Path 937" d="M24.142,50.322a10.319,10.319,0,0,1-2.852.782,4.921,4.921,0,0,0,2.177-2.736,9.891,9.891,0,0,1-3.138,1.2,4.949,4.949,0,0,0-8.561,3.384,5.1,5.1,0,0,0,.115,1.129A14.009,14.009,0,0,1,1.681,48.9,4.951,4.951,0,0,0,3.2,55.517a4.888,4.888,0,0,1-2.236-.61v.054a4.972,4.972,0,0,0,3.965,4.863,4.94,4.94,0,0,1-1.3.163A4.376,4.376,0,0,1,2.7,59.9a5,5,0,0,0,4.625,3.448,9.945,9.945,0,0,1-6.137,2.111A9.269,9.269,0,0,1,0,65.394a13.934,13.934,0,0,0,7.593,2.221A13.99,13.99,0,0,0,21.679,53.531c0-.219-.008-.43-.018-.64A9.874,9.874,0,0,0,24.142,50.322Z" transform="translate(0 -48)"/>
    </g>
  </g>
</svg>
